<svg width="70" height="70" viewBox="0 0 70 70" fill="none" xmlns="http://www.w3.org/2000/svg">
<path fill-rule="evenodd" clip-rule="evenodd" d="M35 17.605C27.2213 17.605 22.3621 21.4696 20.4167 29.2016C23.3334 25.3371 26.7371 23.8875 30.625 24.8529C32.8446 25.4041 34.4313 27.0054 36.1842 28.7758C39.0455 31.6604 42.3559 35 49.5834 35C57.3621 35 62.2213 31.1354 64.1667 23.4033C61.25 27.2679 57.8492 28.7175 53.9584 27.7521C51.7388 27.2008 50.1521 25.5996 48.3963 23.8291C45.538 20.9416 42.2305 17.605 35 17.605ZM20.4167 35C12.638 35 7.77879 38.8646 5.83337 46.5966C8.75004 42.7291 12.1538 41.2825 16.0417 42.2479C18.2613 42.7991 19.848 44.4004 21.6038 46.1708C24.4621 49.0554 27.7725 52.395 35.003 52.395C42.7817 52.395 47.6409 48.5304 49.5863 40.7983C46.6696 44.6629 43.2659 46.1125 39.378 45.1471C37.1584 44.5958 35.5717 42.9946 33.8188 41.2241C30.9546 38.3396 27.6442 35 20.4167 35Z" fill="#EEEEEE"/>
</svg>
