<svg width="80" height="80" viewBox="0 0 80 80" fill="none" xmlns="http://www.w3.org/2000/svg">
<g clip-path="url(#clip0_24_43)">
<path d="M40 0C17.9063 0 0 17.9063 0 40C0 62.0937 17.9063 80 40 80C62.0937 80 80 62.0937 80 40C80 17.9063 62.0937 0 40 0ZM48.8281 33.2188L48.375 39.2031H42.2344V59.9844H34.4844V39.2031H30.3437V33.2188H34.4844V29.2031C34.4844 27.4375 34.5312 24.7031 35.8125 23C37.1719 21.2031 39.0312 19.9844 42.2344 19.9844C47.4531 19.9844 49.6406 20.7344 49.6406 20.7344L48.6094 26.8594C48.6094 26.8594 46.8906 26.3594 45.2812 26.3594C43.6719 26.3594 42.2344 26.9375 42.2344 28.5469V33.2188H48.8281Z" fill="#EEEEEE"/>
</g>
<defs>
<clipPath id="clip0_24_43">
<rect width="80" height="80" fill="white"/>
</clipPath>
</defs>
</svg>
