<svg width="80" height="80" viewBox="0 0 80 80" fill="none" xmlns="http://www.w3.org/2000/svg">
<path fill-rule="evenodd" clip-rule="evenodd" d="M24.8824 3.55399C28.7931 3.37553 30.0419 3.33333 40 3.33333C49.958 3.33333 51.2067 3.37553 55.1173 3.55399C59.0203 3.73199 61.6857 4.35186 64.018 5.25836C66.4293 6.19526 68.474 7.44899 70.5123 9.48743C72.551 11.526 73.8047 13.5708 74.7417 15.9818C75.648 18.3142 76.268 20.9795 76.446 24.8824C76.6243 28.7933 76.6667 30.0419 76.6667 40C76.6667 49.958 76.6243 51.2067 76.446 55.1177C76.268 59.0203 75.648 61.6857 74.7417 64.018C73.8047 66.4293 72.551 68.474 70.5123 70.5123C68.474 72.551 66.4293 73.8047 64.018 74.7417C61.6857 75.648 59.0203 76.268 55.1173 76.446C51.2067 76.6243 49.958 76.6667 40 76.6667C30.0419 76.6667 28.7931 76.6243 24.8824 76.446C20.9795 76.268 18.3142 75.648 15.9818 74.7417C13.5708 73.8047 11.5258 72.551 9.48743 70.5123C7.44887 68.474 6.19527 66.429 5.2582 64.018C4.35174 61.6857 3.732 59.0203 3.55383 55.1177C3.3754 51.2067 3.33333 49.958 3.33333 40C3.33333 30.0418 3.3754 28.7933 3.55383 24.8824C3.732 20.9795 4.35174 18.3142 5.2582 15.9818C6.19527 13.5708 7.44887 11.526 9.48743 9.48743C11.5258 7.44899 13.5708 6.19526 15.9818 5.25836C18.3142 4.35186 20.9795 3.73199 24.8824 3.55399ZM54.8163 10.1536C50.95 9.97719 49.7903 9.93993 40 9.93993C30.2095 9.93993 29.0499 9.97719 25.1834 10.1536C21.6086 10.3168 19.6669 10.9141 18.3749 11.4162C16.6635 12.0814 15.442 12.8759 14.1589 14.1591C12.8759 15.4421 12.0812 16.6635 11.4161 18.3751C10.9141 19.6671 10.3168 21.6086 10.1536 25.1835C9.9772 29.0499 9.93993 30.2096 9.93993 40C9.93993 49.7903 9.9772 50.95 10.1536 54.8163C10.3168 58.3913 10.9141 60.333 11.4161 61.625C12.0812 63.3363 12.8759 64.558 14.1589 65.841C15.442 67.124 16.6635 67.9187 18.3749 68.5837C19.6669 69.0857 21.6086 69.6833 25.1835 69.8463C29.0493 70.0227 30.2087 70.06 40 70.06C49.791 70.06 50.9507 70.0227 54.8163 69.8463C58.3913 69.6833 60.3327 69.0857 61.6247 68.5837C63.3363 67.9187 64.558 67.124 65.841 65.841C67.124 64.558 67.9183 63.3363 68.5837 61.625C69.0857 60.333 69.683 58.3913 69.8463 54.8163C70.0227 50.95 70.06 49.7903 70.06 40C70.06 30.2096 70.0227 29.0499 69.8463 25.1835C69.683 21.6086 69.0857 19.6671 68.5837 18.3751C67.9183 16.6635 67.124 15.4421 65.841 14.1589C64.558 12.8759 63.3363 12.0814 61.6247 11.4162C60.3327 10.9141 58.3913 10.3168 54.8163 10.1536ZM27.7776 40C27.7776 46.75 33.2498 52.2223 40 52.2223C46.75 52.2223 52.2223 46.75 52.2223 40C52.2223 33.2498 46.75 27.7778 40 27.7778C33.2498 27.7778 27.7776 33.2498 27.7776 40ZM21.171 40C21.171 29.6011 29.6011 21.1712 40 21.1712C50.3987 21.1712 58.8287 29.6011 58.8287 40C58.8287 50.399 50.3987 58.8287 40 58.8287C29.6011 58.8287 21.171 50.399 21.171 40ZM59.5727 24.8272C62.0027 24.8272 63.9727 22.8573 63.9727 20.4273C63.9727 17.9972 62.0027 16.0273 59.5727 16.0273C57.1427 16.0273 55.1727 17.9972 55.1727 20.4273C55.1727 22.8573 57.1427 24.8272 59.5727 24.8272Z" fill="#EEEEEE"/>
</svg>
