<svg width="80" height="80" viewBox="0 0 80 80" fill="none" xmlns="http://www.w3.org/2000/svg">
<g clip-path="url(#clip0_24_28)">
<path d="M57.5 0H22.5C10 0 0 10 0 22.5V57.5C0 70 10 80 22.5 80H57.5C70 80 80 70 80 57.5V22.5C80 10 70 0 57.5 0ZM30 62.5C30 64 29 65 27.5 65H17.5C16 65 15 64 15 62.5V32.5C15 31 16 30 17.5 30H27.5C29 30 30 31 30 32.5V62.5ZM22.5 27.5C18.25 27.5 15 24.25 15 20C15 15.75 18.25 12.5 22.5 12.5C26.75 12.5 30 15.75 30 20C30 24.25 26.75 27.5 22.5 27.5ZM65 62.5C65 64 64 65 62.5 65H55C53.5 65 52.5 64 52.5 62.5V53.75V51.25V46.25C52.5 44.25 50.75 42.5 48.75 42.5C46.75 42.5 45 44.25 45 46.25V51.25V53.75V62.5C45 64 44 65 42.5 65H35C33.5 65 32.5 64 32.5 62.5V32.5C32.5 31 33.5 30 35 30H45C45.75 30 46.25 30.25 46.75 30.75C48.25 30.25 49.75 30 51.25 30C58.75 30 65 36.25 65 43.75V62.5Z" fill="#EEEEEE"/>
</g>
<defs>
<clipPath id="clip0_24_28">
<rect width="80" height="80" fill="white"/>
</clipPath>
</defs>
</svg>
