<svg width="80" height="80" viewBox="0 0 80 80" fill="none" xmlns="http://www.w3.org/2000/svg">
<path d="M20.0467 26.6871C20.4276 23.6747 24.3426 19.5805 27.4496 20.0348L27.4446 20.0298C30.4684 20.6044 32.862 25.8087 34.2117 28.1488C35.168 29.8467 34.547 31.567 33.655 32.2929C32.4517 33.2628 30.57 34.601 30.9648 35.9447C31.6667 38.3333 40 46.6667 44.0987 49.0357C45.65 49.9323 46.775 47.5673 47.7357 46.3557C48.4337 45.4237 50.1553 44.8667 51.8493 45.7867C54.3793 47.26 56.7627 48.9723 58.9667 50.9C60.0673 51.82 60.3257 53.1797 59.563 54.6167C58.2197 57.1477 54.3343 60.4853 51.514 59.807C46.588 58.6227 26.6667 50.9 20.2678 28.5267C19.9079 27.4683 19.9985 27.0681 20.0467 26.6871Z" fill="#EEEEEE"/>
<path fill-rule="evenodd" clip-rule="evenodd" d="M40 76.6667C35.9213 76.6667 33.6647 76.229 30 75L22.9814 78.5093C18.5487 80.7257 13.3333 77.5023 13.3333 72.5463V65C6.15517 58.3067 3.33334 50.589 3.33334 40C3.33334 19.7496 19.7496 3.33333 40 3.33333C60.2503 3.33333 76.6667 19.7496 76.6667 40C76.6667 60.2503 60.2503 76.6667 40 76.6667ZM20 62.101L17.8798 60.124C12.3029 54.924 10 49.1103 10 40C10 23.4315 23.4315 10 40 10C56.5687 10 70 23.4315 70 40C70 56.5687 56.5687 70 40 70C36.7143 70 35.1733 69.7033 32.1198 68.6793L29.4949 67.799L20 72.5463V62.101Z" fill="#EEEEEE"/>
</svg>
