<svg width="70" height="70" viewBox="0 0 70 70" fill="none" xmlns="http://www.w3.org/2000/svg">
<g clip-path="url(#clip0_38_105)">
<path fill-rule="evenodd" clip-rule="evenodd" d="M14.5392 5.83337C10.5451 5.83337 7.58966 9.32923 7.72196 13.1205C7.8489 16.7629 7.68399 21.4802 6.49635 25.3272C5.30518 29.1854 3.29058 31.6295 0 31.9434V35.486C3.29058 35.7998 5.30518 38.244 6.49635 42.1024C7.68399 45.9492 7.8489 50.6666 7.72196 54.309C7.58966 58.0997 10.5451 61.596 14.5398 61.596H55.466C59.4603 61.596 62.4152 58.1003 62.2828 54.309C62.1559 50.6666 62.3207 45.9492 63.5084 42.1024C64.7001 38.244 66.7094 35.7998 70 35.486V31.9434C66.7094 31.6295 64.7001 29.1854 63.5084 25.3272C62.3207 21.4807 62.1559 16.7629 62.2828 13.1205C62.4152 9.32981 59.4603 5.83337 55.466 5.83337H14.5392ZM47.4577 40.1587C47.4577 45.3793 43.5636 48.5453 37.1018 48.5453H26.1017C25.787 48.5453 25.4853 48.4202 25.2628 48.1977C25.0403 47.9751 24.9152 47.6735 24.9152 47.3588V20.0707C24.9152 19.756 25.0403 19.4542 25.2628 19.2317C25.4853 19.0092 25.787 18.8842 26.1017 18.8842H37.039C42.427 18.8842 45.9632 21.8029 45.9632 26.284C45.9632 29.4292 43.5846 32.2452 40.5536 32.7382V32.9027C44.6795 33.3553 47.4577 36.2122 47.4577 40.1587ZM35.9024 22.6452H29.6301V31.5044H34.9128C38.9964 31.5044 41.2484 29.86 41.2484 26.9206C41.2484 24.1663 39.312 22.6452 35.9024 22.6452ZM29.6301 35.0199V44.7831H36.1331C40.3848 44.7831 42.637 43.0769 42.637 39.8706C42.637 36.6637 40.3218 35.0193 35.8595 35.0193L29.6301 35.0199Z" fill="#EEEEEE"/>
</g>
<defs>
<clipPath id="clip0_38_105">
<rect width="70" height="70" fill="white"/>
</clipPath>
</defs>
</svg>
