<svg width="70" height="70" viewBox="0 0 70 70" fill="none" xmlns="http://www.w3.org/2000/svg">
<path fill-rule="evenodd" clip-rule="evenodd" d="M25.2782 3.64587C18.7007 3.64587 13.3685 8.97804 13.3685 15.5556C13.3685 19.5699 15.3545 23.1203 18.3976 25.2778C15.3545 27.4354 13.3685 30.9858 13.3685 35C13.3685 39.0142 15.3545 42.5647 18.3977 44.7222C15.3545 46.8799 13.3685 50.4301 13.3685 54.4446C13.3685 61.022 18.7007 66.3542 25.2782 66.3542C31.8558 66.3542 37.1881 61.022 37.1881 54.4446V44.2237C39.2405 45.9025 41.8641 46.9097 44.7227 46.9097C51.3004 46.9097 56.6323 41.5777 56.6323 35C56.6323 30.9858 54.6464 27.4354 51.6034 25.2778C54.6464 23.1203 56.6323 19.5699 56.6323 15.5556C56.6323 8.97804 51.3004 3.64587 44.7227 3.64587H25.2782ZM32.8131 42.5347H25.2782C21.1169 42.5347 17.7435 39.1612 17.7435 35C17.7435 30.8388 21.1169 27.4653 25.2782 27.4653L32.8131 27.4653V35V42.5347ZM25.2782 23.0903H32.8131V8.02087H25.2782C21.1169 8.02087 17.7435 11.3943 17.7435 15.5556C17.7435 19.7169 21.1169 23.0903 25.2782 23.0903ZM52.2573 15.5556C52.2573 19.7142 48.8883 23.086 44.7309 23.0903L40.9593 23.0903H37.1881V8.02087H44.7227C48.8839 8.02087 52.2573 11.3943 52.2573 15.5556ZM37.1881 34.9907C37.193 30.8368 40.5594 27.4703 44.7134 27.4653H44.73C48.888 27.4692 52.2573 30.8412 52.2573 35C52.2573 39.1612 48.8839 42.5347 44.7227 42.5347C40.5644 42.5347 37.193 39.1662 37.1881 35.0094V34.9907ZM25.2782 46.9097C21.1169 46.9097 17.7435 50.2831 17.7435 54.4446C17.7435 58.6058 21.1169 61.9792 25.2782 61.9792C29.4397 61.9792 32.8131 58.6058 32.8131 54.4446V46.9097H25.2782Z" fill="#EEEEEE"/>
</svg>
