<svg width="70" height="69" viewBox="0 0 70 69" fill="none" xmlns="http://www.w3.org/2000/svg">
<g clip-path="url(#clip0_38_80)">
<path d="M4.1991 0.0675049L9.80511 62.0086L34.9622 68.8876L60.1888 61.9989L65.801 0.0675049H4.1991ZM54.107 14.767L53.7561 18.6182L53.6019 20.3261H53.5763H35.0001H34.9731H24.0904L24.7952 28.1052H34.9731H35.0001H50.8216H52.8998L52.7116 30.145L50.8993 50.1456L50.7833 51.4281L35.0001 55.7371V55.7387L34.9646 55.7484L19.1672 51.4282L18.0867 39.5003H21.6548H25.8283L26.3773 45.559L34.966 47.8438L34.9731 47.8419V47.8411L43.5749 45.5546L44.4693 35.7019H35.0001H34.9731H17.7422L15.8469 14.767L15.6621 12.7291H34.9733H35.0001H54.2916L54.107 14.767Z" fill="#EEEEEE"/>
</g>
<defs>
<clipPath id="clip0_38_80">
<rect width="70" height="68.9552" fill="white"/>
</clipPath>
</defs>
</svg>
