<svg width="70" height="70" viewBox="0 0 70 70" fill="none" xmlns="http://www.w3.org/2000/svg">
<path d="M37.8722 32.351H31.7275C31.7275 37.6491 31.7035 42.9144 31.7035 48.2191C31.7757 48.9388 31.815 49.7766 31.815 50.6232C31.815 52.395 31.6379 54.1254 31.2988 55.7966L31.3272 55.6304C30.426 57.5138 28.1007 57.2732 27.0463 56.9429C26.0597 56.4135 25.2788 55.6107 24.791 54.635L24.7779 54.6044C24.6816 54.3988 24.5657 54.2238 24.4279 54.0663L24.43 54.0685L19.4404 57.1441C20.2432 58.8722 21.4835 60.281 23.0213 61.2675L23.0607 61.2916C24.7297 62.2257 26.7247 62.7747 28.8466 62.7747C29.9054 62.7747 30.9335 62.6369 31.9113 62.381L31.8282 62.4007C33.9894 61.8582 35.7504 60.4538 36.7588 58.5857L36.7785 58.5441C37.5638 56.5447 38.0166 54.2282 38.0166 51.8066C38.0166 50.9579 37.9597 50.1222 37.8525 49.3019L37.8635 49.3982C37.8963 43.7829 37.8635 38.1654 37.8635 32.5063L37.8722 32.351ZM62.4291 52.1566C61.95 49.1641 60.001 46.6485 54.2194 44.3035C52.2069 43.3607 49.9713 42.7044 49.3063 41.1863C49.1685 40.8407 49.0897 40.4403 49.0897 40.0225C49.0897 39.7513 49.1225 39.4888 49.186 39.2372L49.1816 39.2591C49.6366 38.056 50.7807 37.2138 52.1194 37.2138C52.5547 37.2138 52.9682 37.3013 53.3422 37.461L53.3225 37.4522C54.53 37.8679 55.4838 38.7516 55.9804 39.8847L55.9913 39.9132C58.8175 38.0647 58.8175 38.0647 60.7885 36.8375C60.316 36.0304 59.7844 35.3304 59.1829 34.7004L59.1872 34.7047C57.5094 32.9241 55.136 31.8172 52.5022 31.8172C52.1282 31.8172 51.7585 31.8391 51.3975 31.8829L51.4413 31.8785L49.5141 32.1213C47.6416 32.5457 46.0425 33.5191 44.8482 34.86L44.8416 34.8688C43.6713 36.3235 42.9625 38.1916 42.9625 40.226C42.9625 43.0238 44.3035 45.5088 46.375 47.075L46.3969 47.0904C50.1288 49.8794 55.5844 50.4919 56.2822 53.1169C56.9385 56.315 53.9044 57.341 50.9075 56.9713C48.8141 56.4944 47.0991 55.1557 46.13 53.3575L46.1104 53.3204L41.1075 56.1925C41.696 57.365 42.4354 58.3669 43.3191 59.2222L43.3213 59.2244C48.0769 64.0238 59.9682 63.7788 62.1032 56.4791C62.3503 55.6829 62.4925 54.7685 62.4925 53.8213C62.4925 53.165 62.4247 52.5241 62.2935 51.9072L62.3044 51.9685L62.4291 52.1566ZM2.19629 2.19629H67.8016V67.8016H2.19629V2.19629Z" fill="#EEEEEE"/>
</svg>
