<svg width="70" height="70" viewBox="0 0 70 70" fill="none" xmlns="http://www.w3.org/2000/svg">
<path d="M28.7503 51.5922L51.6315 38.5328L41.2365 32.5478L18.3706 45.7144L28.7503 51.5922ZM52.6837 24.8806L42.2778 18.8956V30.7453L52.6859 36.7325L52.6837 24.8806ZM53.7228 11.1081L43.319 17.0931L53.7228 23.0781L64.1243 17.0909L53.7228 11.1081ZM21.6803 41.405L27.7178 37.929V11.8234L17.3096 17.8128V43.9184L21.6803 41.405ZM16.2684 4.0381L5.86463 10.0253L16.2684 16.0125L26.6656 10.0253L16.2684 4.0381ZM4.8212 11.8256V52.1894L27.7112 65.3625V53.3947L15.7412 46.6222C15.7018 46.5937 15.6712 46.5631 15.6296 46.5368C15.599 46.5084 15.564 46.4865 15.5334 46.4625L15.5312 46.4559C15.4984 46.4231 15.4699 46.3881 15.4459 46.3487L15.4437 46.3465C15.4131 46.3181 15.389 46.2853 15.3671 46.2481L15.3649 46.2459H15.3584C15.3409 46.2131 15.3234 46.1693 15.3059 46.1256L15.3037 46.1169C15.2884 46.084 15.2709 46.0468 15.2556 46.0053L15.2534 45.9987C15.2446 45.955 15.2359 45.9003 15.2315 45.8456V45.8412C15.2249 45.8084 15.2184 45.769 15.214 45.7297V45.7275V17.8172L9.18307 14.339L4.8212 11.8256ZM52.6859 52.1872V40.3265L29.7959 53.3947V65.3603L52.6859 52.1872ZM65.1634 30.7453V18.8956L54.7596 24.8828V36.7325L65.1634 30.7453ZM67.2109 16.8218C67.2349 16.905 67.2503 16.999 67.2503 17.0975V31.3447C67.2503 31.7297 67.0424 32.0643 66.7318 32.2437L66.7274 32.2459L54.7662 39.1343V52.7865C54.7662 53.1693 54.5584 53.504 54.2499 53.6856L54.2456 53.6878L29.2731 68.0597C29.2206 68.0881 29.1593 68.1143 29.0959 68.1319L29.0893 68.134L29.0237 68.1625C28.9449 68.1865 28.8531 68.1997 28.759 68.1997C28.6649 68.1997 28.5731 68.1865 28.4856 68.1603L28.4921 68.1625C28.4593 68.1537 28.4331 68.1428 28.4068 68.1275L28.409 68.1297C28.3412 68.1056 28.2843 68.0837 28.2296 68.0575L28.2384 68.0619L3.27245 53.69C2.95745 53.5062 2.74963 53.1715 2.74963 52.7887V10.0275C2.74963 9.93122 2.76495 9.83716 2.7912 9.74966L2.78901 9.75622C2.79776 9.72341 2.81745 9.70153 2.82838 9.66872C2.84807 9.60528 2.86995 9.55278 2.89401 9.50247L2.89182 9.50903C2.90932 9.47403 2.9312 9.44341 2.95526 9.41716L3.04713 9.29247L3.14995 9.2181C3.18932 9.18528 3.22432 9.15247 3.2637 9.12403H3.26588L15.7521 1.9381C15.9009 1.8506 16.0803 1.7981 16.2706 1.7981C16.4609 1.7981 16.6403 1.8506 16.7934 1.94028L16.789 1.9381L29.2796 9.12403C29.3212 9.15247 29.3562 9.1831 29.3912 9.21591L29.4962 9.29028C29.5312 9.32966 29.5509 9.37341 29.5881 9.41497C29.6143 9.44122 29.6362 9.47185 29.6559 9.50466L29.6581 9.50685C29.6799 9.5506 29.7018 9.6031 29.7215 9.65778L29.7237 9.66653L29.7587 9.75403C29.7828 9.8306 29.7981 9.92028 29.7981 10.0122C29.7981 10.0165 29.7981 10.0209 29.7981 10.0253V36.7303L40.2018 30.7431V17.0909C40.2018 17.0887 40.2018 17.0865 40.2018 17.0865C40.2018 16.9925 40.2149 16.9006 40.239 16.8131L40.2368 16.8197C40.2456 16.7912 40.2653 16.765 40.2718 16.7322C40.2937 16.6665 40.3156 16.614 40.3418 16.5615L40.3374 16.5703C40.3571 16.5375 40.3878 16.5156 40.4074 16.4784C40.4403 16.4368 40.4665 16.3953 40.4993 16.3603C40.5299 16.3318 40.5628 16.3056 40.5978 16.2837L40.5999 16.2815C40.6393 16.2531 40.6721 16.2181 40.7137 16.194H40.7159L53.2021 9.00591C53.3509 8.91841 53.5303 8.86591 53.7206 8.86591C53.9109 8.86591 54.0903 8.91841 54.2434 9.0081L54.239 9.00591L66.7253 16.194C66.769 16.2225 66.7996 16.2531 66.8412 16.2793C66.874 16.3078 66.9112 16.3297 66.9418 16.3559C66.9768 16.3953 67.0031 16.439 67.0359 16.4784C67.0599 16.5047 67.0818 16.5353 67.1015 16.5659L67.1037 16.5681C67.1299 16.6162 67.1518 16.6709 67.1693 16.7278L67.1715 16.7343C67.189 16.7606 67.2021 16.789 67.2131 16.8197L67.2109 16.8218Z" fill="#EEEEEE"/>
</svg>
