<svg width="70" height="70" viewBox="0 0 70 70" fill="none" xmlns="http://www.w3.org/2000/svg">
<path d="M31.3097 48.5865C32.5129 48.6412 33.7422 48.6806 34.9869 48.6806C36.2447 48.6806 37.4872 48.6543 38.7057 48.5865C37.4872 50.1615 36.2841 51.5549 35.011 52.8828L35.0285 52.8652C33.7619 51.5527 32.5457 50.1571 31.3994 48.7046L31.3097 48.5865ZM18.8454 46.8365C21.2144 47.4381 24.1041 47.9499 27.0529 48.2649L27.3394 48.289C29.1441 50.7674 30.9685 52.9484 32.9263 55.0003L32.9022 54.974C30.0344 58.1743 26.1647 60.4231 21.7875 61.2303L21.6672 61.2478C21.6585 61.2478 21.6497 61.2478 21.641 61.2478C21.0985 61.2478 20.5866 61.1143 20.1382 60.8781L20.1557 60.8868C18.3357 59.8478 17.546 55.8731 18.1607 50.7653C18.3072 49.5074 18.5479 48.184 18.8432 46.8343L18.8454 46.8365ZM51.1832 46.8081C51.4413 47.8449 51.6841 49.1662 51.8569 50.5093L51.8766 50.6974C52.5044 55.8031 51.73 59.7734 49.9254 60.8343C49.5229 61.0574 49.0416 61.1887 48.5297 61.1887C48.4794 61.1887 48.4291 61.1865 48.3788 61.1843H48.3854C43.8944 60.364 40.0269 58.1306 37.1657 54.9696L37.1504 54.9521C39.0732 52.9331 40.8844 50.7565 42.5447 48.4662L42.6716 48.2824C45.9004 47.9456 48.7944 47.4249 51.6141 46.714L51.1832 46.8059V46.8081ZM21.4025 38.6443C21.9494 39.7162 22.5225 40.7837 23.1525 41.8556C23.7811 42.9216 24.4235 43.9629 25.0797 44.9793C23.181 44.7015 21.3479 44.3515 19.5957 43.9249C20.0879 42.2034 20.7047 40.4206 21.4004 38.6399L21.4025 38.6443ZM48.5888 38.5896C49.3129 40.3856 49.9275 42.1771 50.4372 43.914C48.6872 44.3428 46.8388 44.7059 44.9269 44.9793C45.5832 43.9534 46.2394 42.8968 46.8541 41.814C47.4688 40.7487 48.0441 39.6593 48.5932 38.5874L48.5888 38.5896ZM16.6666 26.8887C17.6204 30.1218 18.6441 32.8256 19.8363 35.4331L19.6722 35.0349C18.6529 37.2334 17.6444 39.9218 16.8175 42.689L16.7038 43.1374C15.1594 42.6628 13.9169 42.1968 12.7072 41.674L12.9588 41.7703C8.22505 39.7556 5.16255 37.1065 5.16255 35.0065C5.16255 32.9065 8.22505 30.2443 12.9588 28.2384C14.1072 27.7462 15.3672 27.3021 16.6666 26.8887ZM53.2832 26.8778C54.6066 27.2868 55.8644 27.744 57.0413 28.2384C61.7751 30.2618 64.8376 32.9065 64.8376 35.0065C64.8244 37.1065 61.7619 39.7621 57.0282 41.7724C55.8797 42.2646 54.6219 42.7065 53.3247 43.1199C52.3622 39.8759 51.3385 37.1743 50.1507 34.5624L50.3169 34.9737C51.3319 32.7774 52.3426 30.089 53.1672 27.3218L53.2832 26.8712V26.8778ZM44.9094 25.0337C46.8104 25.3159 48.6413 25.6615 50.3935 26.0924C49.9013 27.8206 49.2866 29.5968 48.5888 31.3774C48.0419 30.3121 47.4688 29.2381 46.8388 28.1684C46.2241 27.0965 45.5679 26.0531 44.9116 25.0359L44.9094 25.0337ZM25.0644 25.0337C24.4082 26.064 23.7519 27.1184 23.1394 28.2056C22.5247 29.2709 21.9494 30.3428 21.4025 31.4146C20.6785 29.6209 20.0638 27.8337 19.5541 26.0924C21.3041 25.6834 23.1482 25.3181 25.0622 25.0381L25.0644 25.0337ZM35 24.3381C37.0235 24.3381 39.0382 24.4299 41.0201 24.5918C42.1298 26.1829 43.2076 27.8774 44.2532 29.6756C45.2696 31.4256 46.1971 33.1989 47.0357 34.9956C46.1935 36.7871 45.2704 38.5765 44.2663 40.3265C43.2272 42.1312 42.1532 43.8484 41.0397 45.4387C39.0491 45.6115 37.0322 45.7056 34.9979 45.7056C32.9744 45.7056 30.9597 45.6093 28.9779 45.4518C27.8688 43.8615 26.786 42.1596 25.7447 40.3681C24.7283 38.6181 23.8008 36.8447 22.9622 35.0481C23.7913 33.2521 24.7275 31.4584 25.7316 29.7062C26.7707 27.9015 27.8447 26.1909 28.9582 24.6006C30.9488 24.4256 32.9657 24.3337 35 24.3337V24.3381ZM34.9585 17.1609C36.2272 18.4734 37.4435 19.8668 38.5876 21.3193L38.6751 21.4353C37.4719 21.3806 36.2425 21.3434 34.9979 21.3434C33.74 21.3434 32.4975 21.3696 31.2791 21.4353C32.4954 19.8603 33.6985 18.4668 34.9738 17.139L34.9563 17.1565L34.9585 17.1609ZM21.6125 8.82213C26.1035 9.64463 29.9688 11.8781 32.8322 15.0368L32.8475 15.0543C30.9247 17.0756 29.1135 19.2521 27.4532 21.5468L27.3263 21.7306C24.0997 22.0653 21.2057 22.5815 18.3882 23.2924L18.8169 23.2006C18.5107 21.8618 18.2832 20.5646 18.1235 19.3199C17.4957 14.2143 18.27 10.244 20.0747 9.18744C20.5254 8.97525 21.0525 8.844 21.6082 8.8265H21.6147L21.6125 8.82213ZM48.3219 8.76744V8.78494C48.3504 8.78494 48.3832 8.78275 48.4182 8.78275C48.941 8.78275 49.4332 8.91182 49.8663 9.13932L49.8488 9.13057C51.6688 10.174 52.4585 14.1465 51.8438 19.2565C51.6972 20.5143 51.4566 21.8399 51.1613 23.1918C48.7879 22.5837 45.8982 22.0696 42.9494 21.7568L42.6694 21.7328C40.8626 19.2521 39.0382 17.0712 37.0804 15.0171L37.1066 15.0434C39.9744 11.8496 43.8376 9.60088 48.206 8.78932L48.3285 8.76963L48.3219 8.76744ZM48.3351 5.78807C42.9932 6.59963 38.3688 9.194 34.9913 12.9368L34.9738 12.9565C31.5722 9.21588 26.9479 6.639 21.7372 5.85807L21.6147 5.84275C21.5863 5.84275 21.5513 5.84275 21.5163 5.84275C20.4422 5.84275 19.4338 6.12494 18.561 6.61932L18.5916 6.604C14.8335 8.77182 13.9913 15.5268 15.9316 24.0034C7.61036 26.5737 2.19849 30.6818 2.19849 35.0109C2.19849 39.3574 7.6388 43.4765 15.9841 46.0271C14.0591 54.5365 14.9188 61.3024 18.6857 63.4681C19.5125 63.9428 20.5057 64.2206 21.5622 64.2206C21.6104 64.2206 21.6585 64.2206 21.7044 64.2184H21.6979C27.0397 63.4068 31.6641 60.8103 35.0416 57.0653L35.0591 57.0456C38.4607 60.7884 43.085 63.3653 48.2957 64.1462L48.4182 64.1615C48.451 64.1615 48.4926 64.1615 48.5319 64.1615C49.5994 64.1615 50.6035 63.8815 51.4719 63.3937L51.4413 63.409C55.1972 61.2434 56.0416 54.4884 54.1013 46.0096C62.3919 43.4612 67.8038 39.3443 67.8038 35.0087C67.8038 30.6621 62.3635 26.5431 54.0182 23.9859C55.9432 15.4853 55.0835 8.71275 51.3166 6.54494C50.481 6.06588 49.4791 5.78369 48.4116 5.78369C48.3832 5.78369 48.3547 5.78369 48.3263 5.78369H48.3307L48.3351 5.78807ZM41.0966 35.0109C41.0966 38.3862 38.3601 41.1227 34.9847 41.1227C31.6094 41.1227 28.8729 38.3862 28.8729 35.0109C28.8729 31.6356 31.6094 28.899 34.9847 28.899C36.6735 28.899 38.2004 29.5837 39.3072 30.6884C40.4141 31.7953 41.0966 33.3221 41.0966 35.0109Z" fill="#EEEEEE"/>
</svg>
